:version 1.10
:name ASF
:units
  mass 1
  length 1
  angle deg
:documentation
  ASF file generated by Kaydara
:root
  axis xyz
  order  tx ty tz rx ry rz
  position 0 0 0
  orientation 0 0 0
:bonedata
  begin
    id 1
    name RightUpLegDummy
    direction -1 2.30186e-007 8.31532e-007
    length 4.46685
    axis 0 0 0 xyz
  end
  begin
    id 2
    name RightUpLeg
    direction -2.30187e-007 -1 1.24343e-010
    length 16.4045
    axis -3.49089 -0.000906625 0.000286804 xyz
    dof rx ry rz
  end
  begin
    id 3
    name RightLeg
    direction -2.30181e-007 -1 -4.17157e-009
    length 17.5097
    axis 3.68512 0.0193738 -0.131023 xyz
    dof rx ry rz
  end
  begin
    id 4
    name RightFoot
    direction 8.31421e-007 -4.51202e-011 1
    length 6.49508
    axis 4.81691e-005 -0.120479 -0.188788 xyz
    dof rx ry rz
  end
  begin
    id 5
    name RightToes
    direction 0.00124746 -0.014064 0.9999
    length 3.85082
    axis 0.000481921 0.542163 -0.142578 xyz
    dof rx ry rz
  end
  begin
    id 6
    name SpineDummy
    direction 0.0717043 0.9409 -0.331007
    length 10.0032
    axis 0 0 0 xyz
  end
  begin
    id 7
    name Spine
    direction 2.30186e-007 1 4.58806e-011
    length 9.84055
    axis -0.001389 0.000121418 2.40972e-006 xyz
    dof rx ry rz
  end
  begin
    id 8
    name Spine1
    direction 0 0 0
    length 0
    axis -0.001389 0.000121451 1.30017e-006 xyz
    dof rx ry rz
  end
  begin
    id 9
    name HEadDummy
    direction -0.00347485 0.950688 -0.310128
    length 8.00997
    axis -0.001389 0.000121451 1.30017e-006 xyz
  end
  begin
    id 10
    name HEad
    direction -0.0222688 0.980941 0.193023
    length 5.12695
    axis -0.001389 0.000121451 1.30017e-006 xyz
    dof rx ry rz
  end
  begin
    id 11
    name LeftShoulder1Dummy
    direction 0.988871 0.146793 -0.0242004
    length 3.5792
    axis -0.001389 0.000121451 1.30017e-006 xyz
  end
  begin
    id 12
    name LeftShoulder1
    direction 0.993832 0.108932 0.020779
    length 4.16823
    axis -0.001389 0.000121451 1.30017e-006 xyz
    dof rx ry rz
  end
  begin
    id 13
    name LeftArm
    direction 1 3.44807e-006 -8.31404e-007
    length 9.91437
    axis -23.1894 0.134784 0.967509 xyz
    dof rx ry rz
  end
  begin
    id 14
    name LeftForeArm
    direction 1 3.44842e-006 -8.31581e-007
    length 9.08575
    axis -9.91835 -0.06569 -0.177793 xyz
    dof rx ry rz
  end
  begin
    id 15
    name LeftHand
    direction 0.992938 -0.0411636 0.11126
    length 5.32135
    axis -0.00960232 -0.00340091 0.185173 xyz
    dof rx ry rz
  end
  begin
    id 16
    name RightShoulderDummy
    direction -0.988871 0.146793 -0.0241962
    length 3.5792
    axis -0.001389 0.000121451 1.30017e-006 xyz
  end
  begin
    id 17
    name RightShoulder
    direction -0.993832 0.108933 0.0207785
    length 4.16823
    axis 0.215806 0.000203643 -0.0068026 xyz
    dof rx ry rz
  end
  begin
    id 18
    name RightArm
    direction -1 3.90912e-006 8.31284e-007
    length 9.91437
    axis -23.2009 -0.134239 -0.964101 xyz
    dof rx ry rz
  end
  begin
    id 19
    name RightForeArm
    direction -1 3.90882e-006 8.31502e-007
    length 9.08575
    axis -9.92322 0.0658061 0.178867 xyz
    dof rx ry rz
  end
  begin
    id 20
    name RightHand
    direction -0.992843 -0.0414603 0.112003
    length 5.28593
    axis -0.00960638 0.00330671 -0.185228 xyz
    dof rx ry rz
  end
  begin
    id 21
    name LeftUpLegDummy
    direction 1 -2.30186e-007 -8.31532e-007
    length 4.46685
    axis 0 0 0 xyz
  end
  begin
    id 22
    name LeftUpLeg
    direction -2.30187e-007 -1 6.00931e-010
    length 16.4045
    axis -3.48766 0.00143442 -0.000524262 xyz
    dof rx ry rz
  end
  begin
    id 23
    name LeftLeg
    direction -2.30187e-007 -1 1.6669e-009
    length 17.5097
    axis 3.68178 -0.00654042 -0.000285133 xyz
    dof rx ry rz
  end
  begin
    id 24
    name LeftFoot
    direction 8.31532e-007 -4.54478e-011 1
    length 6.49508
    axis 1.87233e-006 4.66016e-005 -8.6538e-006 xyz
    dof rx ry rz
  end
  begin
    id 25
    name LeftToes
    direction 0.00818058 -0.00485161 0.999955
    length 3.85048
    axis 1.06247e-005 4.65869e-005 -8.65513e-006 xyz
    dof rx ry rz
  end
:hierarchy
  begin
    root RightUpLegDummy SpineDummy LeftUpLegDummy
    RightUpLegDummy RightUpLeg
    RightUpLeg RightLeg
    RightLeg RightFoot
    RightFoot RightToes
    SpineDummy Spine
    Spine Spine1
    Spine1 HEadDummy LeftShoulder1Dummy RightShoulderDummy
    HEadDummy HEad
    LeftShoulder1Dummy LeftShoulder1
    LeftShoulder1 LeftArm
    LeftArm LeftForeArm
    LeftForeArm LeftHand
    RightShoulderDummy RightShoulder
    RightShoulder RightArm
    RightArm RightForeArm
    RightForeArm RightHand
    LeftUpLegDummy LeftUpLeg
    LeftUpLeg LeftLeg
    LeftLeg LeftFoot
    LeftFoot LeftToes
  end

:SAMPLES-PER-SECOND 30
:FULLY-SPECIFIED
:DEGREES
144
root  -67.7186 32.7888 11.6332 -163.319 73.9614 -175.848
RightUpLeg  -14.8986 -9.9169 -14.1721
RightLeg  26.1415 -6.45571 -2.66483
RightFoot  -0.169303 -0.000302813 0.173303
RightToes  -38.4138 -0.205937 -0.305987
Spine  7.08692 -0.261581 -1.63325
Spine1  13.4201 -0.168407 -3.13734
HEad  21.0983 -2.87657 16.1274
LeftShoulder1  0 -2.42657e-020 -4.95415e-022
LeftArm  -20.3563 15.2025 -81.8123
LeftForeArm  1.78478 -67.1557 -24.7894
LeftHand  -0.771942 3.55976 -24.7863
RightShoulder  0 2.42657e-020 1.07489e-018
RightArm  -45.7549 -10.3661 83.8039
RightForeArm  48.0909 18.9149 3.43737
RightHand  0.688568 24.6513 3.52142
LeftUpLeg  -32.5712 11.7445 7.84413
LeftLeg  29.0279 -3.64651 -1.72917
LeftFoot  5.64036 0.0327063 -0.663938
LeftToes  -30.3521 8.63562e-007 1.17448e-007
145
root  -67.9387 32.604 12.3767 -165.744 75.4259 -177.855
RightUpLeg  -14.3457 -11.6046 -15.8632
RightLeg  25.2154 -8.968 -3.52156
RightFoot  -1.49062 0.000651451 0.427827
RightToes  -34.406 -0.175408 -0.281393
Spine  7.15566 -0.0992599 -1.63147
Spine1  13.5873 0.144401 -3.10527
HEad  21.0523 -1.62329 15.1635
LeftShoulder1  0 -2.42657e-020 -4.95415e-022
LeftArm  -24.0441 18.5767 -82.6623
LeftForeArm  4.76412 -71.1574 -31.1896
LeftHand  -0.482195 1.95597 -27.9693
RightShoulder  0 2.42657e-020 1.07489e-018
RightArm  -45.7984 -11.0015 82.6158
RightForeArm  47.3199 19.6804 3.59021
RightHand  0.791362 24.7545 3.97602
LeftUpLeg  -32.225 13.6875 8.11267
LeftLeg  28.6502 -4.3603 -2.03102
LeftFoot  6.75092 0.0493823 -0.83725
LeftToes  -32.4373 8.63562e-007 1.17448e-007
146
root  -68.0547 32.3948 13.154 -171.452 76.4516 176.834
RightUpLeg  -13.8884 -16.7108 -17.8507
RightLeg  25.2076 -11.4329 -4.47077
RightFoot  -1.63718 0.00260206 0.559901
RightToes  -30.2121 -0.145384 -0.253437
Spine  7.2579 -0.181312 -1.82675
Spine1  13.8186 0.0307309 -3.54291
HEad  21.3104 -0.984092 14.593
LeftShoulder1  0 -2.42657e-020 -4.95415e-022
LeftArm  -27.505 21.7245 -83.0025
LeftForeArm  14.7714 -75.432 -42.9089
LeftHand  -0.312521 1.1941 -29.5375
RightShoulder  0 2.42657e-020 1.07489e-018
RightArm  -46.3019 -11.0218 81.9046
RightForeArm  47.3805 20.2378 3.70145
RightHand  0.863908 24.9831 4.26919
LeftUpLeg  -31.199 14.284 8.13321
LeftLeg  27.3463 -4.32826 -1.89761
LeftFoot  8.12721 0.0671614 -0.945358
LeftToes  -34.1696 8.63562e-007 1.17448e-007
147
root  -68.2353 32.198 14.2328 -175.73 78.4121 173.064
RightUpLeg  -15.1594 -21.5545 -17.8849
RightLeg  27.6327 -13.4702 -5.90784
RightFoot  -1.1249 0.00134229 0.5146
RightToes  -28.3296 -0.132589 -0.240191
Spine  7.38622 0.0772781 -1.91265
Spine1  14.0515 0.598118 -3.78177
HEad  21.9333 -0.774287 13.9233
LeftShoulder1  0 -2.42657e-020 -4.95415e-022
LeftArm  -31.4363 24.1435 -83.2562
LeftForeArm  30.9751 -78.6317 -61.7546
LeftHand  -0.251008 0.942749 -29.9764
RightShoulder  0 2.42657e-020 1.07489e-018
RightArm  -45.8045 -10.6617 81.2575
RightForeArm  47.1477 21.317 3.91982
RightHand  0.85606 25.0222 4.22756
LeftUpLeg  -29.2802 16.4281 9.09841
LeftLeg  24.6374 -4.94014 -1.89189
LeftFoot  10.2808 0.109972 -1.22243
LeftToes  -36.4073 8.63562e-007 1.17448e-007
148
root  -68.4655 32.0048 15.5019 -176.202 78.8723 172.324
RightUpLeg  -17.0374 -27.7528 -16.4682
RightLeg  29.8444 -10.2779 -5.01373
RightFoot  0.252263 0.00047077 0.163246
RightToes  -37.9924 -0.202647 -0.303503
Spine  7.15506 0.0180139 -1.58164
Spine1  13.6143 0.475904 -3.28887
HEad  23.2873 -1.25967 12.1741
LeftShoulder1  0 -2.42657e-020 -4.95415e-022
LeftArm  -35.6425 26.4581 -83.7664
LeftForeArm  55.9751 -79.9358 -87.867
LeftHand  -0.319464 1.19312 -30.1802
RightShoulder  0 2.42657e-020 1.07489e-018
RightArm  -45.294 -10.7219 80.5859
RightForeArm  46.8614 22.7499 4.21492
RightHand  0.724459 25.0293 3.63394
LeftUpLeg  -27.8988 17.2678 10.7715
LeftLeg  20.3573 -5.66053 -1.69476
LeftFoot  12.9666 0.180693 -1.58995
LeftToes  -37.8509 8.63562e-007 1.17448e-007
149
root  -68.7499 31.8069 16.9893 -169.23 76.1937 179.368
RightUpLeg  -18.7261 -34.8984 -13.255
RightLeg  33.2676 -5.47031 -3.10901
RightFoot  -0.832169 -0.000490783 0.310228
RightToes  -45.9092 -0.267325 -0.346012
Spine  6.92182 -0.729234 -0.34536
Spine1  13.1887 -1.04562 -1.24341
HEad  25.2412 -2.2252 9.2985
LeftShoulder1  0 -2.42657e-020 -4.95415e-022
LeftArm  -39.0547 28.0388 -84.8083
LeftForeArm  79.8564 -79.1059 -112.665
LeftHand  -0.412792 1.64469 -28.4313
RightShoulder  0 2.42657e-020 1.07489e-018
RightArm  -44.1531 -10.8273 79.1905
RightForeArm  45.2843 24.1631 4.51437
RightHand  0.607328 25.007 3.10897
LeftUpLeg  -28.2424 16.2217 14.0711
LeftLeg  17.3147 -6.95982 -1.68537
LeftFoot  13.1414 0.218132 -1.89358
LeftToes  -40.7091 8.63562e-007 1.17448e-007
150
root  -69.1246 31.6371 18.6715 -163.44 73.7193 -174.299
RightUpLeg  -21.7301 -41.3668 -8.53803
RightLeg  38.0146 -1.84911 -1.28142
RightFoot  -4.08167 0.000751726 0.398712
RightToes  -44.5867 -0.256121 -0.339539
Spine  6.96644 -1.18193 1.04573
Spine1  13.2639 -1.96231 1.07337
HEad  26.5705 -3.32362 6.70455
LeftShoulder1  0 -2.42657e-020 -4.95415e-022
LeftArm  -41.6476 28.7381 -86.277
LeftForeArm  97.6735 -76.6499 -131.455
LeftHand  -0.547111 2.52824 -24.7214
RightShoulder  0 2.42657e-020 1.07489e-018
RightArm  -42.603 -9.89667 77.3628
RightForeArm  42.334 25.2843 4.75913
RightHand  0.563577 24.7326 2.94084
LeftUpLeg  -28.8036 15.7824 17.8534
LeftLeg  15.2704 -7.29916 -1.49417
LeftFoot  10.1684 0.142271 -1.599
LeftToes  -41.8224 8.63562e-007 1.17448e-007
151
root  -69.2677 31.5753 20.2683 -160.748 71.8442 -171.923
RightUpLeg  -23.4101 -46.1673 -4.10576
RightLeg  39.0522 0.809333 0.553487
RightFoot  -7.41382 -0.0162643 0.126524
RightToes  -43.6405 -0.248199 -0.33475
Spine  6.63991 -1.62446 1.9283
Spine1  12.637 -2.79693 2.39556
HEad  27.7106 -4.12488 5.69405
LeftShoulder1  0 -2.42657e-020 -4.95415e-022
LeftArm  -43.9089 30.3261 -87.1768
LeftForeArm  110.824 -73.0165 -144.3
LeftHand  -0.660198 3.61022 -21.0501
RightShoulder  0 2.42657e-020 1.07489e-018
RightArm  -39.6919 -9.17403 76.0046
RightForeArm  39.5905 25.5946 4.82997
RightHand  0.308436 23.8084 1.83351
LeftUpLeg  -29.4918 14.0714 20.4962
LeftLeg  14.0593 -4.47018 -0.819362
LeftFoot  8.54704 0.0719488 -0.962828
LeftToes  -35.8848 8.63562e-007 1.17448e-007
152
root  -69.1402 31.8126 21.4751 -162.322 73.4774 -173.377
RightUpLeg  -23.9295 -42.6916 -2.26657
RightLeg  38.6693 -0.902767 -0.651975
RightFoot  -8.75408 0.000985443 0.390454
RightToes  -41.206 -0.228188 -0.321833
Spine  6.68032 -0.934448 1.50535
Spine1  12.6446 -1.44763 1.77882
HEad  28.3255 -5.63523 6.24867
LeftShoulder1  0 -2.42657e-020 -4.95415e-022
LeftArm  -43.6683 30.6297 -86.0651
LeftForeArm  121.445 -70.1616 -150.315
LeftHand  -0.439252 2.795 -18.1847
RightShoulder  0 2.42657e-020 1.07489e-018
RightArm  -40.706 -8.85414 76.8781
RightForeArm  39.6211 25.6852 4.84967
RightHand  -0.148454 23.0802 -0.357144
LeftUpLeg  -28.4189 17.3778 18.4633
LeftLeg  16.7776 -1.53667 -0.359392
LeftFoot  10.2189 0.0484858 -0.54227
LeftToes  -35.7821 8.63562e-007 1.17448e-007
153
root  -68.8234 32.3904 22.3644 -168.126 74.5952 -178.237
RightUpLeg  -20.7011 -37.7315 -2.74314
RightLeg  34.9613 -4.59083 -2.79734
RightFoot  -8.14375 0.0394178 0.931343
RightToes  -37.8235 -0.201334 -0.3025
Spine  7.18429 -0.313184 0.732532
Spine1  13.4949 -0.357639 0.853055
HEad  28.5189 -7.99935 8.06814
LeftShoulder1  0 -2.42657e-020 -4.95415e-022
LeftArm  -39.6495 28.3882 -84.6971
LeftForeArm  130.982 -69.1381 -151.979
LeftHand  -0.2176 1.91263 -13.3021
RightShoulder  0 2.42657e-020 1.07489e-018
RightArm  -42.6945 -9.00769 78.2641
RightForeArm  38.0201 26.4273 5.0144
RightHand  -0.581261 21.9991 -2.62054
LeftUpLeg  -26.0776 17.2344 14.7593
LeftLeg  21.3685 0.290965 0.0902449
LeftFoot  11.0152 0.0181683 -0.188432
LeftToes  -33.4068 8.63562e-007 1.17448e-007
154
root  -68.6116 33.0701 23.2187 -171.555 75.051 178.363
RightUpLeg  -17.8547 -33.1929 -1.88798
RightLeg  29.4002 -8.77032 -4.20547
RightFoot  -5.86715 0.0372521 1.10461
RightToes  -34.5663 -0.176596 -0.282417
Spine  7.42636 -0.0141102 0.131401
Spine1  13.8738 0.0929604 0.150832
HEad  28.8653 -9.35125 10.5323
LeftShoulder1  0 -2.42657e-020 -4.95415e-022
LeftArm  -33.9221 24.9994 -83.8472
LeftForeArm  139.807 -68.9744 -152.197
LeftHand  -0.0324677 0.621276 -6.28274
RightShoulder  0 2.42657e-020 1.07489e-018
RightArm  -43.8215 -8.79054 79.8168
RightForeArm  36.3726 27.2175 5.19197
RightHand  -0.726816 20.8622 -3.57759
LeftUpLeg  -25.0793 17.2371 10.0324
LeftLeg  26.3296 -1.87992 -0.787381
LeftFoot  9.57386 0.0470752 -0.562147
LeftToes  -32.3153 8.63562e-007 1.17448e-007
155
root  -68.4998 33.6201 24.0396 -174.265 75.0635 175.51
RightUpLeg  -15.8889 -30.9006 -1.29374
RightLeg  25.3259 -10.0938 -3.97951
RightFoot  -3.20227 0.00790435 0.660471
RightToes  -34.063 -0.172877 -0.27919
Spine  7.64425 -0.176864 -0.514247
Spine1  14.2244 -0.312024 -0.822192
HEad  28.9035 -9.42633 13.2636
LeftShoulder1  0 -2.42657e-020 -4.95415e-022
LeftArm  -28.2095 20.9741 -82.7795
LeftForeArm  150.39 -70.4485 -149.665
LeftHand  0.0352335 -2.98225 -1.72742
RightShoulder  0 2.42657e-020 1.07489e-018
RightArm  -45.1008 -7.63917 82.1769
RightForeArm  36.3109 27.8959 5.34511
RightHand  -0.668143 20.8122 -3.26803
LeftUpLeg  -24.3261 15.8777 5.21543
LeftLeg  30.8642 -1.30415 -0.673489
LeftFoot  5.11396 0.0145645 -0.326147
LeftToes  -28.9991 8.63562e-007 1.17448e-007
156
root  -68.5044 33.9253 24.9471 -171.89 76.6415 177.739
RightUpLeg  -17.1845 -27.2026 -0.0664066
RightLeg  27.0308 -6.96347 -3.00001
RightFoot  -0.693686 -0.00171952 0.0935961
RightToes  -38.4755 -0.206421 -0.30635
Spine  7.87106 -0.234787 -0.608115
Spine1  14.5497 -0.430731 -1.02657
HEad  28.5257 -7.50987 14.241
LeftShoulder1  0 -2.42657e-020 -4.95415e-022
LeftArm  -22.3523 16.9899 -82.4415
LeftForeArm  156.072 -74.1907 -140.781
LeftHand  -0.276948 -6.48577 4.51985
RightShoulder  0 2.42657e-020 1.07489e-018
RightArm  -43.4262 -5.82224 83.6395
RightForeArm  34.5864 29.0557 5.61308
RightHand  -0.631094 20.9069 -3.05051
LeftUpLeg  -23.3235 15.3733 2.1858
LeftLeg  34.5156 0.152864 0.0868443
LeftFoot  1.79083 0.00256918 -0.164393
LeftToes  -26.5135 8.63562e-007 1.17448e-007
157
root  -68.7283 33.9225 25.8531 -163.442 79.0233 -174.913
RightUpLeg  -22.7572 -19.7449 0.668727
RightLeg  35.4317 1.0371 0.626313
RightFoot  1.57982 0.005083 0.00887712
RightToes  -45.2418 -0.261652 -0.342777
Spine  7.84248 -0.28035 -0.185912
Spine1  14.3265 -0.414005 -0.601906
HEad  27.9276 -3.90331 12.9762
LeftShoulder1  0 -2.42657e-020 -4.95415e-022
LeftArm  -17.709 12.9976 -83.4249
LeftForeArm  140.664 -78.9229 -114.319
LeftHand  -0.808583 -8.55042 10.423
RightShoulder  0 2.42657e-020 1.07489e-018
RightArm  -39.6011 -3.09403 83.8308
RightForeArm  33.1471 29.7952 5.78736
RightHand  -0.456352 21.4153 -2.04365
LeftUpLeg  -23.9706 15.6667 0.306606
LeftLeg  37.6695 3.09179 2.07763
LeftFoot  -0.68097 -0.00110057 -0.185207
LeftToes  -25.4614 8.63562e-007 1.17448e-007
